# xmcd
#
# Track frame offsets:
# 150
# 12705
# 25495
# 37075
# 53230
# 65015
# 78302
# 91930
# 104887
# 117887
# 132400
# 148555
# 160945
# 175810
# 188345
# 200367
# 212075
# 226027
# 239995
# 252905
# 272900
# 286062
# 306077
# 317730
#
# Disc length: 4358 seconds
#
#
# Revision: 1
# Processed by: cddbd v1.5.2PL0 Copyright (c) Steve Scherf et al.
# Submitted via: FreeRIP 2.951 
#
DISCID=63110418
DTITLE=Django Reinhardt - Swing 47
DYEAR=1900
DGENRE=Jazz
TTITLE0=Minor Blues
TTITLE1=Clair de lune
TTITLE2=peche a la mouche
TTITLE3=lentement mademoiselle
TTITLE4=melodie au crepuscule
TTITLE5=for sentimental reasons
TTITLE6=danse norvegienne
TTITLE7=blues for barclay
TTITLE8=folie a amphion
TTITLE9=vette
TTITLE10=anniversary song
TTITLE11=swing 47
TTITLE12=september song
TTITLE13=brazil
TTITLE14=i'll never smile again
TTITLE15=new york city
TTITLE16=django's blues
TTITLE17=love's mood
TTITLE18=i love you
TTITLE19=daphne
TTITLE20=how high the moon
TTITLE21=manoir de mes reves
TTITLE22=danse nuptiale
TTITLE23=improvisation no5
EXTD=
EXTT0=
EXTT1=
EXTT2=
EXTT3=
EXTT4=
EXTT5=
EXTT6=
EXTT7=
EXTT8=
EXTT9=
EXTT10=
EXTT11=
EXTT12=
EXTT13=
EXTT14=
EXTT15=
EXTT16=
EXTT17=
EXTT18=
EXTT19=
EXTT20=
EXTT21=
EXTT22=
EXTT23=
PLAYORDER=
